<svg width="55" height="43" viewBox="0 0 55 43" fill="none" xmlns="http://www.w3.org/2000/svg">
<path d="M1 29.0818C1 32.2644 2.26428 35.3167 4.51472 37.5671C6.76516 39.8175 9.8174 41.0818 13 41.0818H43C45.3409 41.0844 47.6084 40.2656 49.4077 38.7682C51.207 37.2707 52.4239 35.1896 52.8465 32.8871C53.2691 30.5847 52.8706 28.207 51.7204 26.1682C50.5702 24.1294 48.7412 22.5588 46.552 21.7298C47.0468 20.3224 47.1383 18.8047 46.816 17.3481C46.4938 15.8915 45.7706 14.554 44.7283 13.4867C43.686 12.4194 42.366 11.6649 40.9174 11.3082C39.4688 10.9516 37.9494 11.0071 36.5307 11.4685C35.6131 7.94855 33.3615 4.92395 30.2527 3.0352C27.1439 1.14644 23.422 0.541842 19.8752 1.34943C16.3284 2.15702 13.2352 4.31337 11.2506 7.36187C9.26602 10.4104 8.54587 14.1116 9.24267 17.6818C6.84422 18.4734 4.75652 20.0013 3.27664 22.048C1.79676 24.0948 1.0001 26.5561 1 29.0818Z" stroke="black" stroke-width="2" stroke-linecap="round" stroke-linejoin="round"/>
</svg>
