<svg width="132" height="64" viewBox="0 0 132 64" fill="none" xmlns="http://www.w3.org/2000/svg">
<path d="M126 46V45.392C126 44.4672 125.892 43.5455 125.68 42.6453L119.632 16.9387C119.167 14.9642 118.049 13.2045 116.459 11.945C114.869 10.6856 112.9 10.0002 110.872 10H89.128C87.0996 10.0002 85.1307 10.6856 83.5406 11.945C81.9506 13.2045 80.8326 14.9642 80.368 16.9387L74.32 42.6453C74.1078 43.5455 74.0005 44.4672 74 45.392V46M126 46C126 48.1217 125.157 50.1566 123.657 51.6569C122.157 53.1571 120.122 54 118 54H82C79.8783 54 77.8434 53.1571 76.3431 51.6569C74.8429 50.1566 74 48.1217 74 46M126 46C126 43.8783 125.157 41.8434 123.657 40.3431C122.157 38.8429 120.122 38 118 38H82C79.8783 38 77.8434 38.8429 76.3431 40.3431C74.8429 41.8434 74 43.8783 74 46M118 46H118.021V46.0213H118V46ZM110 46H110.021V46.0213H110V46Z" stroke="black" stroke-width="2" stroke-linecap="round" stroke-linejoin="round"/>
<path d="M17 46V48.6853C17.0001 49.7363 16.7932 50.7769 16.391 51.7479C15.9888 52.7188 15.3992 53.601 14.656 54.344L13 56H37L35.344 54.344C34.6008 53.601 34.0112 52.7188 33.609 51.7479C33.2068 50.7769 32.9999 49.7363 33 48.6853V46M49 14V40C49 41.5913 48.3679 43.1174 47.2426 44.2426C46.1174 45.3679 44.5913 46 43 46H7C5.4087 46 3.88258 45.3679 2.75736 44.2426C1.63214 43.1174 1 41.5913 1 40V14M49 14C49 12.4087 48.3679 10.8826 47.2426 9.75736C46.1174 8.63214 44.5913 8 43 8H7C5.4087 8 3.88258 8.63214 2.75736 9.75736C1.63214 10.8826 1 12.4087 1 14M49 14V32C49 33.5913 48.3679 35.1174 47.2426 36.2426C46.1174 37.3679 44.5913 38 43 38H7C5.4087 38 3.88258 37.3679 2.75736 36.2426C1.63214 35.1174 1 33.5913 1 32V14" stroke="black" stroke-width="2" stroke-linecap="round" stroke-linejoin="round"/>
</svg>
