<svg width="123" height="199" viewBox="0 0 123 199" fill="none" xmlns="http://www.w3.org/2000/svg">
<path d="M33.5 97C29.232 97 25.0059 96.1594 21.0628 94.5261C17.1197 92.8928 13.5369 90.4989 10.519 87.481C7.50113 84.4631 5.10719 80.8803 3.47392 76.9372C1.84064 72.9941 1 68.768 1 64.5C1 60.232 1.84064 56.0059 3.47391 52.0628C5.10719 48.1197 7.50113 44.5369 10.519 41.519C13.5369 38.5011 17.1197 36.1072 21.0628 34.4739C25.0059 32.8406 29.232 32 33.5 32" stroke="black" stroke-width="2"/>
<path d="M89.5 104C93.768 104 97.9941 104.841 101.937 106.474C105.88 108.107 109.463 110.501 112.481 113.519C115.499 116.537 117.893 120.12 119.526 124.063C121.159 128.006 122 132.232 122 136.5C122 140.768 121.159 144.994 119.526 148.937C117.893 152.88 115.499 156.463 112.481 159.481C109.463 162.499 105.88 164.893 101.937 166.526C97.9941 168.159 93.768 169 89.5 169" stroke="black" stroke-width="2"/>
<path d="M81 38V31C81 28.6131 80.0518 26.3239 78.364 24.636C76.6761 22.9482 74.3869 22 72 22H68C67.2044 22 66.4413 21.6839 65.8787 21.1213C65.3161 20.5587 65 19.7956 65 19V15C65 12.6131 64.0518 10.3239 62.364 8.63604C60.6761 6.94821 58.3869 6 56 6H51M51 40H71M51 48H61M57 6H44C42.344 6 41 7.344 41 9V55C41 56.656 42.344 58 44 58H78C79.656 58 81 56.656 81 55V30C81 23.6348 78.4714 17.5303 73.9706 13.0294C69.4697 8.52856 63.3652 6 57 6Z" stroke="black" stroke-width="2" stroke-linecap="round" stroke-linejoin="round"/>
<path d="M59.2667 145.229C59.0933 145.789 59 146.384 59 147C59 148.104 59.896 149 61 149H73C73.5304 149 74.0391 148.789 74.4142 148.414C74.7893 148.039 75 147.53 75 147C75.0002 146.4 74.9103 145.803 74.7333 145.229M59.2667 145.229C59.6454 144.005 60.4063 142.933 61.438 142.172C62.4697 141.411 63.718 141 65 141H69C71.6987 141 73.9787 142.781 74.7333 145.229M59.2667 145.229C58.264 145.291 57.2667 145.363 56.2693 145.443C53.2533 145.693 51 148.261 51 151.288V157M74.7333 145.229C75.736 145.291 76.7333 145.363 77.7307 145.443C80.7467 145.693 83 148.261 83 151.288V179C83 180.591 82.3679 182.117 81.2426 183.243C80.1174 184.368 78.5913 185 77 185H71M51 157H42C40.344 157 39 158.344 39 160V190C39 191.656 40.344 193 42 193H68C69.656 193 71 191.656 71 190V185M51 157H68C69.656 157 71 158.344 71 160V185M49 177L53 181L61 171" stroke="black" stroke-width="2" stroke-linecap="round" stroke-linejoin="round"/>
<path d="M53 99H63M53 107H63M53 115H63M71 117H77C78.5913 117 80.1174 116.368 81.2426 115.243C82.3679 114.117 83 112.591 83 111V83.288C83 80.2613 80.7467 77.6933 77.7307 77.4427C76.7333 77.36 75.735 77.2888 74.736 77.2293M74.736 77.2293C74.913 77.8029 75.0002 78.3998 75 79C75 79.5304 74.7893 80.0391 74.4142 80.4142C74.0391 80.7893 73.5304 81 73 81H61C59.896 81 59 80.104 59 79C59 78.384 59.0933 77.7893 59.2667 77.2293M74.736 77.2293C73.9813 74.7813 71.6987 73 69 73H65C63.718 73.0003 62.4697 73.4111 61.438 74.1721C60.4063 74.9332 59.6454 76.0045 59.2667 77.2293M59.2667 77.2293C58.264 77.2907 57.2667 77.3627 56.2693 77.4427C53.2533 77.6933 51 80.2613 51 83.288V89M51 89H42C40.344 89 39 90.344 39 92V122C39 123.656 40.344 125 42 125H68C69.656 125 71 123.656 71 122V92C71 90.344 69.656 89 68 89H51ZM47 99H47.0213V99.0213H47V99ZM47 107H47.0213V107.021H47V107ZM47 115H47.0213V115.021H47V115Z" stroke="black" stroke-width="2" stroke-linecap="round" stroke-linejoin="round"/>
</svg>
