<svg width="42" height="42" viewBox="0 0 42 42" fill="none" xmlns="http://www.w3.org/2000/svg">
<path d="M36.5628 23.4379L34.5766 21.4516C34.2776 21.1521 34.0289 20.8065 33.8398 20.4279L31.9498 16.6479C31.8984 16.5453 31.8233 16.4564 31.7308 16.3885C31.6383 16.3206 31.5309 16.2757 31.4176 16.2574C31.3043 16.2391 31.1883 16.248 31.0791 16.2833C30.9699 16.3186 30.8707 16.3794 30.7896 16.4606C30.607 16.643 30.379 16.7733 30.1291 16.8379C29.8793 16.9025 29.6167 16.8991 29.3686 16.8281L27.1408 16.1929C26.7844 16.0927 26.4039 16.1227 26.0677 16.2776C25.7314 16.4325 25.4613 16.7022 25.3058 17.0382C25.1503 17.3742 25.1196 17.7547 25.2192 18.1113C25.3189 18.4679 25.5422 18.7773 25.8493 18.9841L26.8766 19.6666C27.9091 20.3579 28.0561 21.8191 27.1776 22.6976L26.8276 23.0476C26.4566 23.4186 26.2501 23.9191 26.2501 24.4406V25.1581C26.2501 25.8739 26.0576 26.5739 25.6901 27.1846L23.3888 31.0189C23.0608 31.566 22.5966 32.0188 22.0415 32.3332C21.4864 32.6475 20.8593 32.8127 20.2213 32.8126C19.7317 32.8126 19.2621 32.6181 18.9158 32.2719C18.5696 31.9256 18.3751 31.456 18.3751 30.9664V28.9154C18.3751 27.3054 17.3951 25.8581 15.9006 25.2596L14.7543 24.8029C13.9204 24.469 13.2256 23.86 12.7854 23.077C12.3451 22.2939 12.1859 21.3839 12.3341 20.4979L12.3463 20.4244C12.4277 19.9375 12.5998 19.4703 12.8538 19.0471L13.0113 18.7846C13.4293 18.0887 14.0521 17.5389 14.7946 17.2106C15.537 16.8823 16.3628 16.7915 17.1588 16.9506L19.2203 17.3636C19.7055 17.4604 20.2092 17.371 20.6314 17.1132C21.0536 16.8554 21.3633 16.4481 21.4988 15.9724L21.8628 14.6949C21.9889 14.2535 21.9569 13.782 21.7722 13.3618C21.5875 12.9416 21.2618 12.5991 20.8513 12.3936L19.6876 11.8126L19.5283 11.9719C19.1627 12.3375 18.7286 12.6275 18.2509 12.8254C17.7732 13.0233 17.2612 13.1251 16.7441 13.1251H16.4291C15.9933 13.1251 15.5768 13.3001 15.2706 13.6046C14.9899 13.8878 14.6151 14.0583 14.2172 14.0837C13.8193 14.1091 13.4259 13.9877 13.1114 13.7425C12.797 13.4973 12.5834 13.1454 12.5111 12.7532C12.4388 12.3611 12.5128 11.9561 12.7191 11.6149L15.1883 7.49712C15.4345 7.08781 15.604 6.63714 15.6888 6.16712M36.5628 23.4379C36.9867 20.7379 36.7007 17.974 35.7329 15.418C34.7651 12.862 33.1489 10.6019 31.043 8.85969C28.9372 7.11752 26.4142 5.95333 23.7222 5.48155C21.0301 5.00977 18.2616 5.24664 15.6888 6.16887C13.0714 7.10711 10.749 8.72155 8.95764 10.8481C7.16628 12.9747 5.96982 15.5376 5.48985 18.2764C5.00988 21.0152 5.26351 23.8322 6.22496 26.4412C7.18641 29.0502 8.82141 31.3582 10.9638 33.1306C13.1062 34.903 15.6796 36.0766 18.4226 36.5322C21.1655 36.9879 23.9802 36.7092 26.5805 35.7246C29.1809 34.74 31.4742 33.0846 33.2275 30.9265C34.9809 28.7685 36.1316 26.1847 36.5628 23.4379Z" stroke="#FFA239" stroke-width="2" stroke-linecap="round" stroke-linejoin="round"/>
</svg>
