<svg width="42" height="42" viewBox="0 0 42 42" fill="none" xmlns="http://www.w3.org/2000/svg">
<path d="M20.0898 6.12314C20.1638 5.94259 20.2899 5.78814 20.4519 5.67944C20.614 5.57074 20.8047 5.5127 20.9998 5.5127C21.1949 5.5127 21.3856 5.57074 21.5477 5.67944C21.7097 5.78814 21.8358 5.94259 21.9098 6.12314L25.6285 15.0674C25.6982 15.2347 25.8126 15.3797 25.9593 15.4862C26.1059 15.5927 26.2791 15.6567 26.4598 15.6711L36.1163 16.4446C36.9895 16.5146 37.343 17.6049 36.678 18.1736L29.321 24.4771C29.1836 24.5947 29.0812 24.7479 29.025 24.9198C28.9688 25.0917 28.961 25.2758 29.0025 25.4519L31.2513 34.8756C31.2965 35.0647 31.2847 35.2629 31.2173 35.4453C31.1499 35.6276 31.0299 35.7859 30.8727 35.9001C30.7154 36.0143 30.5277 36.0794 30.3335 36.087C30.1393 36.0947 29.9471 36.0446 29.7813 35.9431L21.5125 30.8944C21.3582 30.8001 21.1807 30.7501 20.9998 30.7501C20.8189 30.7501 20.6414 30.8001 20.487 30.8944L12.2183 35.9449C12.0525 36.0464 11.8603 36.0964 11.6661 36.0888C11.4719 36.0811 11.2842 36.0161 11.1269 35.9019C10.9696 35.7876 10.8497 35.6294 10.7823 35.447C10.7149 35.2647 10.7031 35.0665 10.7483 34.8774L12.997 25.4519C13.0388 25.2758 13.0311 25.0917 12.9749 24.9197C12.9187 24.7477 12.8162 24.5946 12.6785 24.4771L5.32155 18.1736C5.1734 18.0473 5.06606 17.8799 5.01313 17.6926C4.9602 17.5053 4.96405 17.3064 5.0242 17.1213C5.08436 16.9361 5.1981 16.773 5.35104 16.6525C5.50397 16.5321 5.68921 16.4597 5.8833 16.4446L15.5398 15.6711C15.7205 15.6567 15.8937 15.5927 16.0403 15.4862C16.187 15.3797 16.3014 15.2347 16.371 15.0674L20.0898 6.12314Z" stroke="#FFA239" stroke-width="2" stroke-linecap="round" stroke-linejoin="round"/>
</svg>
