<svg width="42" height="42" viewBox="0 0 42 42" fill="none" xmlns="http://www.w3.org/2000/svg">
<path d="M28.875 18.375V11.8125C28.875 9.72392 28.0453 7.72088 26.5685 6.24403C25.0916 4.76719 23.0886 3.9375 21 3.9375C18.9114 3.9375 16.9084 4.76719 15.4315 6.24403C13.9547 7.72088 13.125 9.72392 13.125 11.8125V18.375M11.8125 38.0625H30.1875C31.2318 38.0625 32.2333 37.6477 32.9717 36.9092C33.7102 36.1708 34.125 35.1693 34.125 34.125V22.3125C34.125 21.2682 33.7102 20.2667 32.9717 19.5283C32.2333 18.7898 31.2318 18.375 30.1875 18.375H11.8125C10.7682 18.375 9.76669 18.7898 9.02827 19.5283C8.28984 20.2667 7.875 21.2682 7.875 22.3125V34.125C7.875 35.1693 8.28984 36.1708 9.02827 36.9092C9.76669 37.6477 10.7682 38.0625 11.8125 38.0625Z" stroke="#FFA239" stroke-width="2" stroke-linecap="round" stroke-linejoin="round"/>
</svg>
