<svg width="42" height="42" viewBox="0 0 42 42" fill="none" xmlns="http://www.w3.org/2000/svg">
<path d="M17.2882 13.1583C19.3375 11.3645 22.6625 11.3645 24.7118 13.1583C26.7628 14.952 26.7628 17.8605 24.7118 19.6542C24.3565 19.9675 23.9593 20.2248 23.5393 20.4278C22.2355 21.0595 21.0018 22.176 21.0018 23.625V24.9375M36.75 21C36.75 23.0683 36.3426 25.1164 35.5511 27.0273C34.7596 28.9381 33.5995 30.6744 32.1369 32.1369C30.6744 33.5995 28.9381 34.7596 27.0273 35.5511C25.1164 36.3426 23.0683 36.75 21 36.75C18.9317 36.75 16.8836 36.3426 14.9727 35.5511C13.0619 34.7596 11.3256 33.5995 9.86307 32.1369C8.40055 30.6744 7.24041 28.9381 6.4489 27.0273C5.65739 25.1164 5.25 23.0683 5.25 21C5.25 16.8228 6.90937 12.8168 9.86307 9.86307C12.8168 6.90937 16.8228 5.25 21 5.25C25.1772 5.25 29.1832 6.90937 32.1369 9.86307C35.0906 12.8168 36.75 16.8228 36.75 21ZM21 30.1875H21.014V30.2015H21V30.1875Z" stroke="#FFA239" stroke-width="2" stroke-linecap="round" stroke-linejoin="round"/>
</svg>
