<svg width="42" height="42" viewBox="0 0 42 42" fill="none" xmlns="http://www.w3.org/2000/svg">
<path d="M36.5627 23.4377L34.5765 21.4515C34.2775 21.152 34.0287 20.8063 33.8397 20.4277L31.9497 16.6477C31.8983 16.5452 31.8232 16.4563 31.7307 16.3884C31.6381 16.3205 31.5308 16.2755 31.4175 16.2572C31.3042 16.239 31.1882 16.2479 31.079 16.2832C30.9698 16.3185 30.8706 16.3793 30.7895 16.4605C30.6069 16.6429 30.3789 16.7731 30.129 16.8378C29.8792 16.9024 29.6166 16.899 29.3685 16.828L27.1407 16.1927C26.7843 16.0925 26.4038 16.1226 26.0675 16.2775C25.7312 16.4324 25.4612 16.7021 25.3057 17.0381C25.1502 17.3741 25.1195 17.7545 25.2191 18.1111C25.3187 18.4677 25.5421 18.7772 25.8492 18.984L26.8765 19.6665C27.909 20.3577 28.056 21.819 27.1775 22.6975L26.8275 23.0475C26.4565 23.4185 26.25 23.919 26.25 24.4405V25.158C26.25 25.8737 26.0575 26.5737 25.69 27.1845L23.3887 31.0187C23.0607 31.5659 22.5965 32.0187 22.0414 32.3331C21.4863 32.6474 20.8592 32.8126 20.2212 32.8125C19.7316 32.8125 19.262 32.618 18.9157 32.2717C18.5695 31.9255 18.375 31.4559 18.375 30.9662V28.9152C18.375 27.3052 17.395 25.858 15.9005 25.2595L14.7542 24.8027C13.9202 24.4689 13.2255 23.8599 12.7853 23.0769C12.345 22.2938 12.1858 21.3838 12.334 20.4977L12.3462 20.4242C12.4276 19.9374 12.5997 19.4702 12.8537 19.047L13.0112 18.7845C13.4291 18.0885 14.052 17.5388 14.7944 17.2105C15.5369 16.8822 16.3627 16.7914 17.1587 16.9505L19.2202 17.3635C19.7053 17.4603 20.2091 17.3709 20.6313 17.1131C21.0535 16.8553 21.3632 16.448 21.4987 15.9722L21.8627 14.6947C21.9888 14.2534 21.9567 13.7819 21.7721 13.3617C21.5874 12.9415 21.2616 12.599 20.8512 12.3935L19.6875 11.8125L19.5282 11.9717C19.1626 12.3374 18.7285 12.6274 18.2508 12.8253C17.7731 13.0232 17.261 13.125 16.744 13.125H16.429C15.9932 13.125 15.5767 13.3 15.2705 13.6045C14.9898 13.8877 14.615 14.0582 14.2171 14.0836C13.8192 14.109 13.4257 13.9876 13.1113 13.7424C12.7969 13.4972 12.5833 13.1452 12.511 12.7531C12.4387 12.361 12.5127 11.956 12.719 11.6147L15.1882 7.497C15.4343 7.08769 15.6039 6.63702 15.6887 6.167M36.5627 23.4377C36.9866 20.7377 36.7006 17.9739 35.7328 15.4179C34.765 12.8619 33.1488 10.6017 31.0429 8.85956C28.9371 7.1174 26.4141 5.95321 23.722 5.48143C21.03 5.00964 18.2615 5.24651 15.6887 6.16875C13.0713 7.10699 10.7489 8.72143 8.95752 10.848C7.16616 12.9746 5.9697 15.5375 5.48973 18.2763C5.00976 21.015 5.26339 23.8321 6.22484 26.4411C7.18629 29.0501 8.82129 31.358 10.9637 33.1304C13.1061 34.9028 15.6795 36.0765 18.4224 36.5321C21.1654 36.9877 23.98 36.7091 26.5804 35.7245C29.1808 34.7399 31.4741 33.0845 33.2274 30.9264C34.9807 28.7684 36.1315 26.1846 36.5627 23.4377Z" stroke="#FFA239" stroke-width="2" stroke-linecap="round" stroke-linejoin="round"/>
</svg>
