<?xml version="1.0" encoding="UTF-8" standalone="no"?><!DOCTYPE svg PUBLIC "-//W3C//DTD SVG 1.1//EN" "http://www.w3.org/Graphics/SVG/1.1/DTD/svg11.dtd"><svg width="100%" height="100%" viewBox="0 0 1173 1403" version="1.1" xmlns="http://www.w3.org/2000/svg" xmlns:xlink="http://www.w3.org/1999/xlink" xml:space="preserve" xmlns:serif="http://www.serif.com/" style="fill-rule:evenodd;clip-rule:evenodd;stroke-linecap:round;stroke-linejoin:round;stroke-miterlimit:1.5;"><g id="Rucksack-Linien" serif:id="Rucksack Linien"><clipPath id="_clip1"><rect x="376.915" y="-15.262" width="424.419" height="171.512"/></clipPath><g clip-path="url(#_clip1)"><circle cx="589.124" cy="243.459" r="212.209" style="fill:none;stroke:#000;stroke-width:62.5px;"/></g><clipPath id="_clip2"><rect x="-49.807" y="801.257" width="231.954" height="389.877"/></clipPath><g clip-path="url(#_clip2)"><path d="M228.659,906.865l0,172.271c0,24.784 -20.122,44.907 -44.907,44.907l-89.814,-0c-24.785,-0 -44.907,-20.123 -44.907,-44.907l-0,-172.271c-0,-24.785 20.122,-44.907 44.907,-44.907l89.814,0c24.785,0 44.907,20.122 44.907,44.907Z" style="fill:none;stroke:#000;stroke-width:62.5px;"/></g><clipPath id="_clip3"><rect x="33.168" y="487.645" width="1106.1" height="953.488"/></clipPath><g clip-path="url(#_clip3)"><path d="M990.287,538.517l0,630.814c0,111.506 -90.529,202.035 -202.035,202.035l-404.07,0c-111.506,0 -202.035,-90.529 -202.035,-202.035l0,-630.814c0,-111.506 90.529,-202.034 202.035,-202.034l404.07,-0c111.506,-0 202.035,90.528 202.035,202.034Z" style="fill:none;stroke:#000;stroke-width:62.5px;"/></g><path d="M990.287,252.18l0,191.861c0,52.945 -42.985,95.93 -95.93,95.93l-616.279,-0c-52.946,-0 -95.931,-42.985 -95.931,-95.93l0,-191.861c0,-52.945 42.985,-95.93 95.931,-95.93l616.279,0c52.945,0 95.93,42.985 95.93,95.93Z" style="fill:none;stroke:#000;stroke-width:62.65px;"/><clipPath id="_clip4"><rect x="180.23" y="1050.93" width="757.732" height="291.368"/></clipPath><g clip-path="url(#_clip4)"><path d="M885.636,957.122l-0,206.395c-0,56.957 -46.241,103.198 -103.198,103.198l-392.442,0c-56.956,0 -103.197,-46.241 -103.197,-103.198l-0,-206.395c-0,-56.956 46.241,-103.198 103.197,-103.198l392.442,0c56.957,0 103.198,46.242 103.198,103.198Z" style="fill:none;stroke:#000;stroke-width:62.5px;"/></g><path d="M642.584,519.225l0,178.12c0,15.554 -12.628,28.183 -28.183,28.183l-56.367,-0c-15.555,-0 -28.184,-12.629 -28.184,-28.183l0,-178.12c0,-15.555 12.629,-28.183 28.184,-28.183l56.367,-0c15.555,-0 28.183,12.628 28.183,28.183Z"/><rect x="286.799" y="853.924" width="598.837" height="197.004" style="fill:none;stroke:#000;stroke-width:62.5px;"/><rect x="31.25" y="719.549" width="148.98" height="134.375" style="fill:none;stroke:#000;stroke-width:62.5px;"/><clipPath id="_clip5"><rect x="994.123" y="798.967" width="231.954" height="389.877"/></clipPath><g clip-path="url(#_clip5)"><path d="M947.611,904.576l0,172.27c0,24.785 20.122,44.907 44.907,44.907l89.815,0c24.784,0 44.907,-20.122 44.907,-44.907l-0,-172.27c-0,-24.785 -20.123,-44.908 -44.907,-44.908l-89.815,0c-24.785,0 -44.907,20.123 -44.907,44.908Z" style="fill:none;stroke:#000;stroke-width:62.5px;"/></g><rect x="992.205" y="716.707" width="148.98" height="134.375" style="fill:none;stroke:#000;stroke-width:62.5px;"/></g></svg>