<svg width="275" height="207" viewBox="0 0 275 207" fill="none" xmlns="http://www.w3.org/2000/svg">
<g clip-path="url(#clip0_1_310)">
<path d="M101.731 55.0956C113.576 47.4552 129.891 50.4238 141.432 58.5193C145.198 61.1973 148.657 64.2823 151.746 67.7182C153.548 69.6933 155.256 71.7668 156.89 73.9118C157.292 74.438 157.693 74.9695 158.086 75.5063C158.354 75.8692 158.621 76.2346 158.885 76.6025C162.199 81.2057 165.236 86.0482 168.21 90.8468C175.633 102.826 183.25 115.161 194.56 123.571C196.891 125.303 200.142 126.863 202.529 125.209C204.601 123.773 204.69 120.752 204.218 118.277C202.465 109.106 196.142 101.506 189.425 95.0177C182.708 88.53 175.271 82.5818 170.195 74.7423C165.12 66.9028 162.801 56.4368 167.247 48.2262C171.078 41.1507 179.322 37.1819 187.368 36.997C195.414 36.8139 203.231 39.9399 210.038 44.2323C216.845 48.5265 222.83 53.9752 229.077 59.0486C232.842 62.1094 238.099 65.1465 242.203 62.555C245.669 60.3649 245.939 55.1075 243.874 51.5676C241.808 48.0277 238.121 45.8031 234.587 43.7284C223.613 37.2849 212.639 30.8419 201.664 24.3995C198.298 22.4247 194.857 20.3867 192.372 17.3754C189.886 14.3659 188.506 10.136 189.876 6.48136C191.228 2.87982 195.004 0.592882 198.823 0.115615C202.64 -0.360551 206.49 0.697352 210.061 2.13032C223.443 7.50166 254.951 42.6417 263.349 48.6496C268.745 52.5083 274.415 57.3933 274.96 64.0025C275.64 72.2305 267.449 79.0587 259.228 79.8569C251.007 80.6574 243.039 77.0847 235.694 73.3075C228.349 69.5304 220.853 65.3658 212.608 64.8415C204.364 64.3172 195.114 68.7221 193.159 76.7441C191.46 83.7244 195.78 90.9273 201.409 95.3937C205.814 98.8906 210.984 101.219 215.978 103.838C217.365 104.563 218.737 105.313 220.076 106.114C223.502 108.169 226.705 110.576 229.633 113.295C232.706 116.145 235.465 119.316 237.862 122.754C239.774 125.493 241.443 128.395 242.849 131.425C243.063 131.888 243.271 132.358 243.473 132.833C243.664 133.288 243.849 133.749 244.025 134.214C246.317 140.25 247.21 147.013 244.282 152.647C241.361 158.266 235.034 161.593 228.717 162.055C225.062 162.272 221.4 161.789 217.928 160.63C215.375 159.801 212.903 158.739 210.544 157.458C199.606 151.59 190.947 142.285 183.039 132.72C175.132 123.155 167.687 113.084 158.301 104.964C148.915 96.8431 137.154 90.7032 124.739 90.7965C112.326 90.888 99.5284 98.448 96.0026 110.344C90.8635 101.493 87.3884 91.4037 87.8472 81.1815C88.3061 70.9594 93.1292 60.6452 101.731 55.0956Z" fill="#3F3D56"/>
<path d="M149.893 88.1665C150.646 88.1665 151.257 87.5562 151.257 86.8034C151.257 86.0505 150.646 85.4402 149.893 85.4402C149.139 85.4402 148.529 86.0505 148.529 86.8034C148.529 87.5562 149.139 88.1665 149.893 88.1665Z" fill="#FFA239"/>
<path d="M98.4941 90.1156C99.6587 90.1156 100.603 89.172 100.603 88.008C100.603 86.844 99.6587 85.9004 98.4941 85.9004C97.3296 85.9004 96.3855 86.844 96.3855 88.008C96.3855 89.172 97.3296 90.1156 98.4941 90.1156Z" fill="#FF6584"/>
<path d="M250.902 71.4671C251.332 71.4671 251.681 71.1185 251.681 70.6884C251.681 70.2583 251.332 69.9097 250.902 69.9097C250.472 69.9097 250.123 70.2583 250.123 70.6884C250.123 71.1185 250.472 71.4671 250.902 71.4671Z" fill="#FF6584"/>
<path d="M235.138 29.6142C235.568 29.6142 235.917 29.2656 235.917 28.8355C235.917 28.4054 235.568 28.0568 235.138 28.0568C234.708 28.0568 234.359 28.4054 234.359 28.8355C234.359 29.2656 234.708 29.6142 235.138 29.6142Z" fill="#FF6584"/>
<path d="M215.091 105.651C215.312 105.013 215.61 104.404 215.978 103.838C217.365 104.563 218.737 105.312 220.076 106.114C223.502 108.169 226.705 110.576 229.633 113.295C228.455 114.896 226.741 116.021 224.804 116.466C222.866 116.912 220.833 116.648 219.073 115.723C217.314 114.798 215.944 113.274 215.213 111.426C214.483 109.578 214.439 107.529 215.091 105.651Z" fill="#FF6584"/>
<path d="M115.727 80.3084C116.167 80.3084 116.523 79.9519 116.523 79.512C116.523 79.0721 116.167 78.7156 115.727 78.7156C115.286 78.7156 114.93 79.0721 114.93 79.512C114.93 79.9519 115.286 80.3084 115.727 80.3084Z" fill="#F0F0F0"/>
<path d="M213.352 21.3831C213.792 21.3831 214.148 21.0266 214.148 20.5867C214.148 20.1469 213.792 19.7903 213.352 19.7903C212.911 19.7903 212.555 20.1469 212.555 20.5867C212.555 21.0266 212.911 21.3831 213.352 21.3831Z" fill="#F0F0F0"/>
<path d="M206.177 7.19674C206.617 7.19674 206.974 6.84016 206.974 6.40031C206.974 5.96045 206.617 5.60388 206.177 5.60388C205.737 5.60388 205.38 5.96045 205.38 6.40031C205.38 6.84016 205.737 7.19674 206.177 7.19674Z" fill="#F0F0F0"/>
<path d="M262.6 60.0775C263.04 60.0775 263.396 59.7209 263.396 59.281C263.396 58.8412 263.04 58.4846 262.6 58.4846C262.159 58.4846 261.803 58.8412 261.803 59.281C261.803 59.7209 262.159 60.0775 262.6 60.0775Z" fill="#F0F0F0"/>
<path d="M220.744 61.2218C221.184 61.2218 221.54 60.8652 221.54 60.4253C221.54 59.9855 221.184 59.6289 220.744 59.6289C220.304 59.6289 219.947 59.9855 219.947 60.4253C219.947 60.8652 220.304 61.2218 220.744 61.2218Z" fill="#F0F0F0"/>
<path d="M198.533 137.186C198.973 137.186 199.329 136.83 199.329 136.39C199.329 135.95 198.973 135.593 198.533 135.593C198.093 135.593 197.736 135.95 197.736 136.39C197.736 136.83 198.093 137.186 198.533 137.186Z" fill="#F0F0F0"/>
<path d="M173.493 62.4774C173.933 62.4774 174.29 62.1208 174.29 61.6809C174.29 61.2411 173.933 60.8845 173.493 60.8845C173.053 60.8845 172.696 61.2411 172.696 61.6809C172.696 62.1208 173.053 62.4774 173.493 62.4774Z" fill="#F0F0F0"/>
<path d="M172.375 47.4174C172.815 47.4174 173.172 47.0609 173.172 46.621C173.172 46.1812 172.815 45.8246 172.375 45.8246C171.935 45.8246 171.578 46.1812 171.578 46.621C171.578 47.0609 171.935 47.4174 172.375 47.4174Z" fill="#F0F0F0"/>
<path d="M216.056 139.777C217.369 135.976 219.568 132.542 222.471 129.757C222.854 129.391 223.248 129.036 223.653 128.694C227.666 125.302 232.627 123.227 237.862 122.754C239.774 125.493 241.443 128.395 242.849 131.425C243.063 131.888 243.271 132.357 243.473 132.833C243.664 133.288 243.849 133.749 244.025 134.214C246.317 140.25 247.21 147.013 244.282 152.647C241.361 158.266 235.034 161.593 228.717 162.054C225.062 162.272 221.4 161.789 217.928 160.63C216.048 157.296 214.942 153.581 214.694 149.761C214.662 149.28 214.647 148.799 214.642 148.316C214.622 145.41 215.1 142.522 216.056 139.777Z" fill="#FFA239"/>
<path d="M205.51 134.731C206.789 131.045 211.577 128.875 218.994 128.619C220.478 128.566 222.11 129.183 223.653 128.694C231.139 126.322 237.93 127.872 243.473 132.833C243.664 133.288 243.85 133.749 244.025 134.214C243.951 134.187 243.877 134.161 243.803 134.135C236.312 131.537 228.876 130.02 222.471 129.757C221.287 129.71 219.876 129.025 219.033 129.742C212.262 135.502 207.682 133.088 206.572 135.099C204.95 138.036 207.827 142.613 213.033 147.02C213.548 147.456 214.085 147.888 214.642 148.316C214.647 148.799 214.663 149.28 214.694 149.761C213.854 149.141 213.058 148.513 212.307 147.878C206.644 143.085 204.23 138.415 205.51 134.731Z" fill="#E4E4E4"/>
<path d="M233.564 160.837C234.004 160.837 234.361 160.481 234.361 160.041C234.361 159.601 234.004 159.244 233.564 159.244C233.124 159.244 232.767 159.601 232.767 160.041C232.767 160.481 233.124 160.837 233.564 160.837Z" fill="#F0F0F0"/>
<path d="M219.466 150.594C219.906 150.594 220.263 150.237 220.263 149.797C220.263 149.358 219.906 149.001 219.466 149.001C219.026 149.001 218.669 149.358 218.669 149.797C218.669 150.237 219.026 150.594 219.466 150.594Z" fill="#F0F0F0"/>
<path d="M230.252 152.758C234.532 152.758 238.001 149.291 238.001 145.013C238.001 140.736 234.532 137.268 230.252 137.268C225.973 137.268 222.504 140.736 222.504 145.013C222.504 149.291 225.973 152.758 230.252 152.758Z" fill="#F0F0F0"/>
<path opacity="0.3" d="M108.509 59.3936C110.32 59.4786 114.067 60.3777 118.126 61.54C122.183 62.7035 126.584 64.123 130.929 65.527C138.535 67.9828 146.14 70.4378 153.745 72.8921C154.79 73.229 155.838 73.5688 156.89 73.9117C157.292 74.4379 157.693 74.9695 158.086 75.5062C157.162 75.1797 156.234 74.8639 155.309 74.5628C151.357 73.2792 147.927 72.4326 144.092 71.2647C138.189 69.469 131.962 67.1107 125.923 64.9146C119.884 62.7167 112.955 60.351 108.509 59.3936Z" fill="#F0F0F0"/>
<path opacity="0.3" d="M243.739 43.8022L260.846 72.1861L244.704 43.2377C244.685 43.1458 244.645 43.0597 244.586 42.9865C244.527 42.9133 244.452 42.8552 244.366 42.817C244.281 42.7787 244.187 42.7615 244.093 42.7666C243.999 42.7718 243.908 42.7992 243.827 42.8466C243.746 42.894 243.678 42.96 243.627 43.0392C243.577 43.1183 243.546 43.2084 243.538 43.3018C243.529 43.3952 243.543 43.4894 243.578 43.5764C243.613 43.6634 243.668 43.7409 243.739 43.8022Z" fill="#F0F0F0"/>
<path d="M235.396 127.569C235.836 127.569 236.193 127.212 236.193 126.773C236.193 126.333 235.836 125.976 235.396 125.976C234.956 125.976 234.599 126.333 234.599 126.773C234.599 127.212 234.956 127.569 235.396 127.569Z" fill="#F0F0F0"/>
<path d="M95.6332 124.94C98.4544 124.94 100.742 122.654 100.742 119.834C100.742 117.014 98.4544 114.729 95.6332 114.729C92.812 114.729 90.5249 117.014 90.5249 119.834C90.5249 122.654 92.812 124.94 95.6332 124.94Z" fill="#FFA239"/>
<path d="M92.607 117.031C92.0919 116.89 91.614 116.638 91.207 116.293C90.7999 115.948 90.4735 115.517 90.2509 115.032C90.0283 114.547 89.9148 114.019 89.9184 113.485C89.922 112.951 90.0426 112.425 90.2718 111.943L81.0222 102.841L87.6189 101.434L95.3911 110.293C96.1758 110.732 96.7724 111.443 97.0677 112.291C97.363 113.14 97.3365 114.068 96.9933 114.898C96.6502 115.729 96.0141 116.405 95.2057 116.798C94.3972 117.191 93.4726 117.274 92.607 117.031Z" fill="#A0616A"/>
<path d="M48.3812 46.1964L53.5396 49.5947L59.5776 51.0084C59.5776 51.0084 64.3663 85.2165 66.7195 87.2684C69.0727 89.3203 67.0899 89.5148 67.7276 92.3451C68.3653 95.1754 69.841 100.966 69.841 100.966C55.5069 109.846 42.7012 110.931 31.7758 102.426C31.6052 101.865 31.6314 101.263 31.85 100.719C32.0687 100.176 32.4666 99.7231 32.9779 99.4366C34.8252 98.2896 30.8184 93.7963 32.3306 92.8964C33.8428 91.9965 31.1706 85.2655 31.1706 85.2655L31.6369 70.8102L30.3386 68.593L32.1675 54.3606L36.882 52.2665L38.4962 47.484L48.3812 46.1964Z" fill="#FFA239"/>
<path d="M50.6162 47.3964L59.1219 50.2274C59.1219 50.2274 68.5309 49.2344 68.9122 63.2338C69.2934 77.2331 67.54 84.7455 67.54 84.7455C67.54 84.7455 87.1122 124.085 65.911 112.466L59.7154 88.0829L53.33 49.7897L50.6162 47.3964Z" fill="#2F2E41"/>
<path d="M59.1465 78.347L63.5584 77.7379C63.5584 77.7379 63.9844 84.3863 66.0948 85.3939C68.2051 86.4015 67.4937 86.5674 67.7426 87.634C67.9914 88.7006 65.8659 91.6559 67.5376 92.3909C69.2094 93.1259 83.8204 111.538 83.8204 111.538L92.4406 103.56C91.8482 101.955 88.9973 103.261 88.8185 101.56C88.5936 98.9882 84.0812 91.9628 83.1209 91.062C82.1607 90.1612 82.5403 88.5733 82.0426 86.44C81.5449 84.3068 81.8904 86.2849 81.0609 82.7295C80.2313 79.1741 68.9899 61.0578 68.599 57.7751C68.2082 54.4924 63.6317 52.5601 63.6317 52.5601L60.0745 53.3892L59.1465 78.347Z" fill="#2F2E41"/>
<path d="M21.8958 196.571L27.0883 197.934L34.8188 178.563L27.1551 176.552L21.8958 196.571Z" fill="#A0616A"/>
<path d="M20.2903 201.937L36.2582 206.128L36.3112 205.926C36.744 204.279 36.5044 202.527 35.6449 201.056C34.7855 199.585 33.3767 198.516 31.7284 198.083L31.728 198.083L29.3925 195.105L23.3693 195.889L21.9754 195.523L20.2903 201.937Z" fill="#2F2E41"/>
<path d="M48.5152 200.454L53.8834 200.453L56.4375 179.756L48.5139 179.756L48.5152 200.454Z" fill="#A0616A"/>
<path d="M48.326 206.051L64.8352 206.051V205.842C64.8351 204.139 64.1581 202.505 62.953 201.301C61.7479 200.096 60.1136 199.42 58.4094 199.419H58.409L55.3933 197.133L49.7668 199.42L48.3257 199.42L48.326 206.051Z" fill="#2F2E41"/>
<path d="M35.0871 101.408C33.7902 103.028 34.4387 108.537 34.4387 108.537C34.4387 108.537 32.1691 126.36 33.1418 127.981C34.1145 129.601 32.4934 130.897 31.5207 133.165C30.5481 135.434 29.5754 140.943 29.5754 140.943C24.0637 145.48 24.3879 166.219 24.3879 166.219L22.4426 184.69C23.0911 186.635 32.1692 186.959 33.4661 186.635C34.7629 186.311 47.4074 140.619 47.4074 140.619C47.4074 140.619 46.759 184.69 46.759 186.635C46.759 188.579 55.5129 187.607 57.4582 187.607C59.4035 187.607 71.7238 108.213 71.7238 108.213V103.676L70.1027 101.408C70.1027 101.408 36.384 99.7876 35.0871 101.408Z" fill="#2F2E41"/>
<path d="M38.1648 48.3538L30.2029 53.424L26.3518 56.6506L31.4601 89.1998C31.4601 89.1998 23.699 118.786 35.9299 116.962C48.1607 115.138 47.475 88.5493 47.475 88.5493L38.1648 48.3538Z" fill="#2F2E41"/>
<path d="M48.8184 94.5915C48.3589 94.8635 47.8454 95.0315 47.314 95.0836C46.7826 95.1358 46.2461 95.0708 45.7425 94.8933C45.239 94.7158 44.7804 94.4302 44.3992 94.0564C44.018 93.6826 43.7235 93.2299 43.5363 92.73L30.5601 93.0433L34.1363 87.3271L45.9105 87.906C46.7715 87.6474 47.6975 87.7134 48.5131 88.0915C49.3286 88.4697 49.977 89.1337 50.3355 89.9578C50.6939 90.7819 50.7374 91.7088 50.4578 92.5628C50.1782 93.4168 49.5949 94.1387 48.8184 94.5915Z" fill="#A0616A"/>
<path d="M42.3446 43.9522C48.008 43.9522 52.5992 39.3634 52.5992 33.7028C52.5992 28.0422 48.008 23.4534 42.3446 23.4534C36.6812 23.4534 32.0901 28.0422 32.0901 33.7028C32.0901 39.3634 36.6812 43.9522 42.3446 43.9522Z" fill="#A0616A"/>
<path d="M30.7131 26.9682C31.8645 25.1877 34.0254 24.0011 36.1201 24.3345C36.3151 22.9984 36.8731 21.7413 37.7333 20.7001C38.5936 19.659 39.7232 18.8737 40.9991 18.4298C42.275 17.9858 43.6482 17.9003 44.9694 18.1824C46.2906 18.4646 47.5089 19.1036 48.4919 20.0299C48.8151 19.8025 49.1917 19.6623 49.5851 19.6229C49.9784 19.5836 50.3753 19.6464 50.7373 19.8053C51.4582 20.133 52.0854 20.6362 52.5615 21.2689C53.7635 22.7671 54.5365 24.563 54.7983 26.4655C55.0601 28.3681 54.8009 30.3059 54.0482 32.0729C54.3042 31.1427 53.3716 30.2675 52.4292 30.0588C51.4869 29.8501 50.4984 30.0475 49.5427 29.9116C48.3179 29.7374 47.2169 29.0272 45.9902 28.8674C44.9592 28.7331 43.9224 28.9973 42.9171 29.2621C41.9117 29.5269 40.8776 29.797 39.8451 29.6744C38.8126 29.5519 37.4827 33.4628 37.5005 36.2173C37.5039 36.7393 37.3963 37.4095 36.8859 37.5203C36.2574 37.6567 35.8931 36.7896 35.2949 36.5534C35.0192 36.4744 34.7235 36.5054 34.4703 36.64C34.217 36.7747 34.026 37.0023 33.9373 37.2749C33.8619 37.5521 33.8538 37.8433 33.9138 38.1242C33.9737 38.4051 34.0999 38.6677 34.2818 38.89C34.6496 39.3308 35.0861 39.7093 35.5746 40.0109L35.3282 40.2157C34.9184 40.7569 34.0682 40.7804 33.4775 40.4456C32.9126 40.0632 32.4551 39.5425 32.1486 38.9333C31.0557 37.1164 30.097 35.1805 29.7113 33.0958C29.3256 31.0111 29.5617 28.7488 30.7131 26.9682Z" fill="#2F2E41"/>
<path d="M34.3336 57.6079L29.7255 53.6609C29.7255 53.6609 24.3452 55.3389 23.4329 58.8667C16.2521 68.0439 12.3848 78.7619 11.3462 90.7953C20.7211 94.3343 32.2005 95.5897 44.5502 95.9011L41.996 86.3278L24.4362 83.1367L34.3336 57.6079Z" fill="#2F2E41"/>
<path d="M18.0067 201.539L15.5451 197.585L15.0534 199.845C14.9672 200.24 14.881 200.642 14.8012 201.041C14.102 200.445 13.3581 199.892 12.6302 199.363C10.3954 197.742 8.16151 196.118 5.92871 194.493L6.62789 198.546C7.05894 201.041 7.50915 203.588 8.57546 205.869C8.69363 206.128 8.8213 206.383 8.95864 206.632H19.3477C19.4312 206.401 19.489 206.161 19.5201 205.917C19.5226 205.901 19.5237 205.885 19.5232 205.869C19.6861 204.322 18.8304 202.863 18.0067 201.539Z" fill="#F2F2F2"/>
<path d="M109.819 196.997L114.476 189.517L115.406 193.791C115.569 194.54 115.732 195.301 115.883 196.055C117.206 194.926 118.613 193.882 119.99 192.88C124.218 189.813 128.444 186.742 132.668 183.667L131.346 191.334C130.53 196.055 129.678 200.873 127.661 205.189C127.438 205.678 127.196 206.161 126.936 206.632H107.282C107.124 206.195 107.014 205.741 106.956 205.28C106.951 205.25 106.949 205.22 106.95 205.189C106.641 202.261 108.26 199.502 109.819 196.997Z" fill="#F2F2F2"/>
<path d="M106.165 206.792H84.7818C83.8074 206.791 82.8732 206.403 82.1841 205.715C81.4951 205.026 81.1075 204.092 81.1064 203.118V128.135C81.1075 127.161 81.4951 126.227 82.1841 125.539C82.8732 124.85 83.8074 124.463 84.7818 124.461H106.165C107.14 124.463 108.074 124.85 108.763 125.539C109.452 126.227 109.84 127.161 109.841 128.135V203.118C109.84 204.092 109.452 205.026 108.763 205.715C108.074 206.403 107.14 206.791 106.165 206.792Z" fill="#F2F2F2"/>
<path d="M101.116 126.376H90.1504C89.7842 126.376 89.433 126.23 89.1741 125.971C88.9151 125.712 88.7695 125.361 88.769 124.995V121.056C88.7695 120.69 88.9151 120.339 89.1741 120.08C89.433 119.821 89.7842 119.675 90.1504 119.675H101.116C101.482 119.675 101.834 119.821 102.093 120.08C102.352 120.339 102.497 120.69 102.498 121.056V124.995C102.497 125.361 102.352 125.712 102.093 125.971C101.834 126.23 101.482 126.376 101.116 126.376Z" fill="#3F3D56"/>
<path d="M132.478 206.902L0.380026 207C0.279395 207 0.182987 206.96 0.111933 206.888C0.0408796 206.817 0.000976562 206.721 0.000976562 206.62C0.000976562 206.52 0.0408796 206.423 0.111933 206.352C0.182987 206.281 0.279395 206.24 0.380026 206.24L132.478 206.142C132.578 206.142 132.675 206.183 132.746 206.254C132.817 206.325 132.857 206.421 132.857 206.522C132.857 206.623 132.817 206.719 132.746 206.79C132.675 206.862 132.578 206.902 132.478 206.902Z" fill="#CACACA"/>
</g>
<defs>
<clipPath id="clip0_1_310">
<rect width="275" height="207" fill="white"/>
</clipPath>
</defs>
</svg>
