<svg width="24" height="24" viewBox="0 0 24 24" fill="none" xmlns="http://www.w3.org/2000/svg">
<path d="M20.8931 13.3929L19.7581 12.2579C19.5872 12.0868 19.4451 11.8893 19.3371 11.6729L18.2571 9.51293C18.2277 9.4543 18.1848 9.4035 18.1319 9.36471C18.079 9.32591 18.0177 9.30023 17.9529 9.28978C17.8882 9.27934 17.8219 9.28442 17.7595 9.30461C17.6971 9.3248 17.6404 9.35953 17.5941 9.40593C17.4897 9.51015 17.3594 9.58458 17.2166 9.6215C17.0739 9.65843 16.9238 9.6565 16.7821 9.61593L15.5091 9.25293C15.3054 9.19567 15.088 9.21284 14.8958 9.30136C14.7036 9.38989 14.5493 9.54397 14.4605 9.73598C14.3716 9.928 14.3541 10.1454 14.411 10.3492C14.4679 10.5529 14.5956 10.7298 14.7711 10.8479L15.3581 11.2379C15.9481 11.6329 16.0321 12.4679 15.5301 12.9699L15.3301 13.1699C15.1181 13.3819 15.0001 13.6679 15.0001 13.9659V14.3759C15.0001 14.7849 14.8901 15.1849 14.6801 15.5339L13.3651 17.7249C13.1776 18.0376 12.9123 18.2963 12.5951 18.476C12.2779 18.6556 11.9196 18.75 11.5551 18.7499C11.2752 18.7499 11.0069 18.6388 10.8091 18.4409C10.6112 18.2431 10.5001 17.9747 10.5001 17.6949V16.5229C10.5001 15.6029 9.94005 14.7759 9.08605 14.4339L8.43105 14.1729C7.95449 13.9822 7.55749 13.6342 7.30593 13.1867C7.05437 12.7392 6.96338 12.2192 7.04805 11.7129L7.05505 11.6709C7.10154 11.3927 7.19991 11.1258 7.34505 10.8839L7.43505 10.7339C7.67387 10.3362 8.02977 10.0221 8.45403 9.83448C8.87829 9.64688 9.35017 9.59499 9.80505 9.68593L10.9831 9.92193C11.2603 9.97722 11.5481 9.92613 11.7894 9.77882C12.0306 9.63151 12.2076 9.39878 12.2851 9.12693L12.4931 8.39693C12.5651 8.14473 12.5468 7.87529 12.4412 7.63517C12.3357 7.39506 12.1496 7.19937 11.9151 7.08193L11.2501 6.74993L11.1591 6.84093C10.9501 7.04986 10.7021 7.21559 10.4291 7.32866C10.1561 7.44174 9.86353 7.49993 9.56805 7.49993H9.38805C9.13905 7.49993 8.90105 7.59993 8.72605 7.77393C8.56567 7.93577 8.35151 8.03317 8.12412 8.04769C7.89674 8.06222 7.67193 7.99286 7.49225 7.85274C7.31258 7.71263 7.19053 7.51149 7.14921 7.28742C7.10789 7.06335 7.15017 6.83191 7.26805 6.63693L8.67905 4.28393C8.81969 4.05004 8.9166 3.79251 8.96505 3.52393M20.8931 13.3929C21.1353 11.8501 20.9718 10.2707 20.4188 8.81016C19.8658 7.34959 18.9422 6.05806 17.7389 5.06254C16.5355 4.06702 15.0938 3.40176 13.5555 3.13217C12.0172 2.86258 10.4352 2.99794 8.96505 3.52493C7.46937 4.06107 6.14228 4.9836 5.11865 6.19879C4.09502 7.41397 3.41133 8.87849 3.13706 10.4435C2.86279 12.0085 3.00772 13.6182 3.55712 15.1091C4.10652 16.6 5.04081 17.9188 6.26504 18.9316C7.48926 19.9444 8.95979 20.6151 10.5272 20.8754C12.0946 21.1358 13.703 20.9766 15.1889 20.4139C16.6748 19.8513 17.9853 18.9053 18.9872 17.6722C19.9891 16.439 20.6466 14.9626 20.8931 13.3929Z" stroke="black" stroke-width="1.5" stroke-linecap="round" stroke-linejoin="round"/>
</svg>
